<?xml version="1.0" encoding="utf-8"?>
<!-- Generator: Adobe Illustrator 25.4.1, SVG Export Plug-In . SVG Version: 6.00 Build 0)  -->
<svg version="1.1" id="Layer_1" xmlns="http://www.w3.org/2000/svg" xmlns:xlink="http://www.w3.org/1999/xlink" x="0px" y="0px"
	 viewBox="0 0 1300 1300" style="enable-background:new 0 0 1300 1300;" xml:space="preserve">
<style type="text/css">
	.st0{fill:url(#XMLID_00000169521470740644571200000012133505839181532846_);}
	.st1{fill:url(#XMLID_00000023280206532312432720000007580247048486798226_);}
	.st2{fill:url(#XMLID_00000068667068572678735880000017563617637476453261_);}
	.st3{fill:url(#XMLID_00000129922185667412309960000002497896648935120552_);}
	.st4{fill:url(#XMLID_00000100382739673825280460000000342240533567588264_);}
	.st5{fill:url(#XMLID_00000005239412928388716810000009008745842635998627_);}
	.st6{fill:#CBDB2A;}
	.st7{fill:#80C342;}
</style>
<g id="XMLID_4_">
	
		<linearGradient id="XMLID_00000063621676390170089450000009769261551089739961_" gradientUnits="userSpaceOnUse" x1="677.6128" y1="429.4572" x2="903.047" y2="429.4572">
		<stop  offset="0" style="stop-color:#80C342"/>
		<stop  offset="1" style="stop-color:#BFD730"/>
	</linearGradient>
	<path id="XMLID_5_" style="fill:url(#XMLID_00000063621676390170089450000009769261551089739961_);" d="M890.14,445.43
		c5.35-10.2,9.58-20.77,12.9-31.61c-7.38-40.04-24.68-79.12-55.72-105.1c-34.08-28.53-86.85-37.09-123.6-12.1
		c-39.64,26.95-49.26,81.58-45.3,129.35c3.97,47.77,17.89,95.43,11.25,142.9c-0.38,2.74-0.86,5.46-1.39,8.17
		c34.99-10.3,69.66-21.79,101.96-38.6C831.25,517.12,868.68,486.36,890.14,445.43z"/>
	
		<linearGradient id="XMLID_00000134969673156368540810000010114273237813542811_" gradientUnits="userSpaceOnUse" x1="439.0415" y1="583.5358" x2="907.3718" y2="583.5358">
		<stop  offset="0" style="stop-color:#B2D235"/>
		<stop  offset="1" style="stop-color:#72BF44"/>
	</linearGradient>
	<path id="XMLID_6_" style="fill:url(#XMLID_00000134969673156368540810000010114273237813542811_);" d="M903.05,413.83
		c-3.32,10.84-7.56,21.41-12.9,31.61c-21.46,40.92-58.89,71.69-99.88,93.01c-32.3,16.8-66.97,28.29-101.96,38.6
		c-10.29,52.96-47.65,100.13-97.14,121.76c-54.93,24.01-98.77,7.6-152.11-7.08c80.97,73.11,220,78.6,313.59,29.44
		c104.52-54.9,168.26-178.61,152.3-295.58C904.4,421.67,903.77,417.74,903.05,413.83z"/>
</g>
<g id="XMLID_3_">
	
		<linearGradient id="XMLID_00000021076902366032258470000000174500727736824205_" gradientUnits="userSpaceOnUse" x1="361.3053" y1="532.2111" x2="558.6555" y2="532.2111">
		<stop  offset="0" style="stop-color:#00692B"/>
		<stop  offset="1" style="stop-color:#0DB14B"/>
	</linearGradient>
	<path id="XMLID_7_" style="fill:url(#XMLID_00000021076902366032258470000000174500727736824205_);" d="M524.03,661.3
		c-3.12-5.12-5.51-10.47-6.69-15.81c-3.9-17.6,1.67-35.97,9.56-52.17c7.89-16.2,18.15-31.28,24.6-48.11
		c14.39-37.58,6.9-83.39-20.84-112.54c-27.74-29.16-75.09-38.59-110.71-19.86c-27.28,14.35-45.27,42.4-54.29,71.87
		c-1.79,5.86-3.23,11.83-4.35,17.85c7.5,34.1,23.44,66.37,46.53,92.59C437.84,629.19,479.52,652.58,524.03,661.3z"/>
	
		<linearGradient id="XMLID_00000140016381830475940510000008840704869893059201_" gradientUnits="userSpaceOnUse" x1="358.4455" y1="599.0268" x2="556.1883" y2="599.0268">
		<stop  offset="0" style="stop-color:#00692B"/>
		<stop  offset="1" style="stop-color:#223B1E"/>
	</linearGradient>
	<path id="XMLID_8_" style="fill:url(#XMLID_00000140016381830475940510000008840704869893059201_);" d="M524.03,661.3
		c-44.51-8.72-86.19-32.11-116.2-66.18c-23.09-26.21-39.02-58.49-46.53-92.59c-9.37,50.28,4.41,105.04,39.39,142.3
		c32.23,34.33,86.66,59.99,155.49,47.46C545.8,686.76,532.3,674.86,524.03,661.3z"/>
</g>
<linearGradient id="XMLID_00000127011186309841102350000013429544912362978729_" gradientUnits="userSpaceOnUse" x1="753.9767" y1="386.267" x2="877.709" y2="386.267">
	<stop  offset="0" style="stop-color:#CBDB2A;stop-opacity:0"/>
	<stop  offset="1" style="stop-color:#FFF9AE;stop-opacity:0.8"/>
</linearGradient>
<path id="XMLID_1_" style="fill:url(#XMLID_00000127011186309841102350000013429544912362978729_);" d="M865.65,350.88
	c21.47,35.14,13.5,85.36-17.8,112.13c9.04-15.28,8.02-35.91-2.48-50.22c-9.68-13.19-25.5-20.14-40.66-26.28
	c-15.16-6.14-31.09-12.53-41.54-25.11c-8.36-10.06-12.79-28.42-5.51-40.44c6.62-10.93,20.18-11.5,32.16-11.42
	C819.71,309.73,849.9,325.11,865.65,350.88z"/>
<linearGradient id="XMLID_00000010306151991502114220000004221511921749183902_" gradientUnits="userSpaceOnUse" x1="399.8484" y1="511.0256" x2="399.8484" y2="444.7766" gradientTransform="matrix(0 1 -1 0 993.863 92.6828)">
	<stop  offset="0" style="stop-color:#50B848"/>
	<stop  offset="1" style="stop-color:#00AE4D;stop-opacity:0"/>
</linearGradient>
<path id="XMLID_2_" style="fill:url(#XMLID_00000010306151991502114220000004221511921749183902_);" d="M527.2,457.38
	c13.81,12.56,23.06,30.93,21.76,49.56c-1.3,18.63-14.58,36.63-32.81,40.65c-8.38,1.85-18.06,0.39-23.85-5.95
	c-5.33-5.84-6.28-14.42-5.9-22.32c0.78-15.82,5.86-31.22,6.31-47.05c0.35-12.35-3.21-23.28-9.88-33.5
	C492.87,430.41,519.3,450.19,527.2,457.38z"/>
<path id="XMLID_11_" class="st6" d="M439.04,691.73c0,0,1.07,0.52,3.12,1.42c2.04,0.9,5.08,2.14,8.96,3.66
	c7.76,3.01,19.07,6.81,32.93,10.07c6.93,1.64,14.51,3.06,22.57,4.18c8.07,1.06,16.63,1.78,25.49,1.87c4.43,0.09,8.93-0.1,13.47-0.34
	c2.27-0.19,4.55-0.32,6.84-0.6c1.14-0.13,2.29-0.23,3.44-0.37c1.14-0.16,2.29-0.31,3.44-0.47c9.18-1.3,18.38-3.51,27.28-6.52
	c8.9-3.04,17.52-6.9,25.55-11.52c8-4.66,15.49-9.93,22.22-15.66c6.73-5.73,12.8-11.8,18.15-17.91c5.37-6.1,10.02-12.26,14.06-18.11
	c1-1.47,2.01-2.89,2.94-4.32c0.92-1.44,1.81-2.84,2.68-4.21c0.44-0.68,0.87-1.36,1.3-2.02c0.4-0.68,0.8-1.35,1.2-2.01
	c0.79-1.32,1.55-2.61,2.29-3.85c2.88-5.03,5.3-9.48,7.14-13.21c1.92-3.7,3.3-6.67,4.27-8.69c0.97-2.02,1.48-3.09,1.48-3.09
	s-0.45,1.11-1.28,3.18c-0.86,2.07-1.99,5.15-3.77,8.94c-1.68,3.83-3.88,8.4-6.54,13.59c-2.72,5.15-5.86,10.95-9.81,16.97
	c-0.96,1.52-1.95,3.07-3.03,4.59c-1.07,1.54-2.14,3.12-3.27,4.7c-1.17,1.55-2.36,3.13-3.57,4.73c-1.21,1.6-2.54,3.14-3.84,4.75
	c-5.29,6.34-11.3,12.71-18.13,18.64c-6.81,5.93-14.36,11.54-22.58,16.33c-8.22,4.78-17.06,8.8-26.2,11.97
	c-9.17,3.05-18.62,5.27-28.03,6.55c-9.41,1.33-18.77,1.71-27.79,1.48c-9.03-0.19-17.71-1.16-25.86-2.43
	c-8.15-1.31-15.77-3.01-22.7-4.91c-6.95-1.85-13.2-3.94-18.67-5.94c-5.48-2-10.17-3.95-14-5.63c-3.83-1.68-6.76-3.16-8.76-4.18
	C440.08,692.32,439.04,691.73,439.04,691.73z"/>
<path id="XMLID_12_" class="st7" d="M469.84,714.73c0,0,0.82,0.33,2.35,0.96c1.53,0.62,3.8,1.48,6.69,2.57
	c2.88,1.09,6.42,2.33,10.47,3.75c4.07,1.37,8.66,2.9,13.7,4.45c5.04,1.57,10.53,3.13,16.35,4.73c2.92,0.76,5.91,1.59,9,2.31
	c1.54,0.38,3.09,0.76,4.66,1.15c1.58,0.36,3.17,0.73,4.77,1.1c3.2,0.77,6.49,1.39,9.8,2.1c3.33,0.63,6.69,1.27,10.09,1.91
	c3.41,0.56,6.83,1.22,10.29,1.68c1.73,0.25,3.46,0.5,5.19,0.75c1.73,0.24,3.48,0.42,5.22,0.64c1.74,0.2,3.48,0.46,5.22,0.63
	c1.74,0.17,3.48,0.34,5.22,0.51c3.47,0.39,6.95,0.55,10.39,0.81c1.72,0.14,3.44,0.2,5.14,0.26c1.71,0.08,3.41,0.16,5.1,0.23
	c3.38,0.13,6.72,0.12,10.01,0.18c3.29,0,6.51-0.13,9.68-0.15c3.16-0.09,6.25-0.29,9.26-0.43c3.01-0.15,5.92-0.5,8.75-0.7
	c2.83-0.18,5.55-0.59,8.16-0.89c1.31-0.16,2.59-0.32,3.84-0.47c1.25-0.16,2.46-0.4,3.65-0.57c2.37-0.38,4.62-0.73,6.74-1.07
	c4.19-0.86,7.87-1.55,10.88-2.21c6-1.45,9.43-2.27,9.43-2.27s-3.35,1.11-9.22,3.04c-2.97,0.87-6.6,1.84-10.77,2.93
	c-2.11,0.46-4.35,0.95-6.71,1.47c-1.18,0.25-2.39,0.54-3.65,0.76c-1.25,0.21-2.54,0.43-3.85,0.65c-5.23,0.96-10.95,1.67-17.01,2.3
	c-3.04,0.24-6.16,0.55-9.35,0.74c-3.2,0.15-6.47,0.3-9.79,0.38c-3.32,0-6.71,0.08-10.13,0.02c-3.42-0.11-6.89-0.12-10.37-0.37
	c-3.48-0.24-7-0.38-10.52-0.75c-1.76-0.16-3.52-0.32-5.29-0.49c-1.76-0.17-3.52-0.41-5.28-0.61c-1.76-0.23-3.52-0.42-5.27-0.68
	c-1.75-0.27-3.5-0.53-5.25-0.8c-3.5-0.49-6.95-1.18-10.39-1.77c-6.86-1.28-13.56-2.78-20.01-4.39c-1.61-0.4-3.21-0.81-4.79-1.2
	c-1.57-0.43-3.13-0.86-4.67-1.28c-3.08-0.83-6.07-1.77-8.99-2.63c-5.82-1.78-11.27-3.61-16.26-5.42c-5-1.77-9.52-3.58-13.51-5.19
	c-3.98-1.64-7.42-3.15-10.23-4.44c-2.82-1.27-4.99-2.36-6.47-3.1C470.63,715.13,469.84,714.73,469.84,714.73z"/>
</svg>
