<svg width="150" height="130" viewBox="0 0 150 130" fill="none" xmlns="http://www.w3.org/2000/svg">
<rect width="150" height="130" fill="white"/>
<path d="M143.923 46.037C145.351 43.2908 146.48 40.4451 147.367 37.5266C145.397 26.7466 140.779 16.2251 132.494 9.23044C123.397 1.54928 109.311 -0.755335 99.5019 5.97274C88.9211 13.2285 86.3533 27.9366 87.4103 40.7978C88.47 53.6589 92.1856 66.4904 90.4132 79.2708C90.3118 80.0085 90.1836 80.7408 90.0422 81.4704C99.3818 78.6974 108.636 75.6039 117.258 71.0781C128.204 65.3381 138.195 57.0566 143.923 46.037Z" fill="url(#paint0_linear_104_54)"/>
<path d="M147.369 37.5293C146.483 40.4478 145.351 43.2935 143.926 46.0397C138.198 57.0566 128.207 65.3408 117.266 71.0808C108.644 75.6039 99.3898 78.6974 90.0502 81.4731C87.3035 95.7316 77.3313 108.431 64.1212 114.255C49.4592 120.719 37.7573 116.301 23.5196 112.349C45.1323 132.032 82.2427 133.51 107.224 120.275C135.123 105.494 152.136 72.1874 147.876 40.6955C147.73 39.6401 147.561 38.582 147.369 37.5293Z" fill="url(#paint1_linear_104_54)"/>
<path d="M46.2 104.156C45.3672 102.777 44.7293 101.337 44.4143 99.8992C43.3733 95.1608 44.8601 90.215 46.9661 85.8535C49.0721 81.492 51.8107 77.432 53.5324 72.9008C57.3734 62.7831 55.3742 50.4497 47.9697 42.6016C40.5653 34.7508 27.9265 32.212 18.4187 37.2547C11.137 41.1181 6.33506 48.6701 3.92741 56.6043C3.44962 58.182 3.06525 59.7893 2.7663 61.41C4.76822 70.5908 9.02297 79.2789 15.1862 86.3381C23.1939 95.5108 34.3193 101.808 46.2 104.156Z" fill="url(#paint2_linear_104_54)"/>
<path d="M46.2001 104.156C34.3193 101.808 23.1939 95.5108 15.1835 86.3381C9.02029 79.2816 4.7682 70.5908 2.7636 61.4101C0.262533 74.947 3.94074 89.69 13.2777 99.7216C21.8807 108.964 36.4093 115.873 54.7816 112.499C52.011 111.01 48.4075 107.807 46.2001 104.156Z" fill="url(#paint3_linear_104_54)"/>
<path d="M31.7355 118.541C31.7355 118.541 31.9544 118.63 32.3627 118.799C32.7711 118.966 33.3771 119.198 34.1485 119.491C34.9172 119.785 35.8621 120.119 36.9431 120.501C38.0295 120.87 39.2547 121.282 40.6 121.699C41.9453 122.122 43.4107 122.542 44.9642 122.972C45.7436 123.177 46.5417 123.4 47.3665 123.594C47.7776 123.697 48.1913 123.799 48.6104 123.904C49.0321 124.001 49.4565 124.1 49.8836 124.2C50.7377 124.407 51.6159 124.574 52.4994 124.765C53.3883 124.935 54.2851 125.107 55.1927 125.28C56.1029 125.43 57.0158 125.608 57.9393 125.732C58.4011 125.799 58.8629 125.867 59.3246 125.934C59.7864 125.999 60.2535 126.047 60.718 126.106C61.1824 126.16 61.6469 126.23 62.1113 126.276C62.5758 126.322 63.0402 126.367 63.5047 126.413C64.4309 126.518 65.3598 126.561 66.278 126.631C66.7371 126.669 67.1962 126.685 67.65 126.701C68.1064 126.723 68.5602 126.744 69.0113 126.763C69.9135 126.798 70.805 126.796 71.6832 126.812C72.5614 126.812 73.4208 126.777 74.267 126.771C75.1105 126.747 75.9353 126.693 76.7387 126.656C77.5421 126.615 78.3189 126.521 79.0743 126.467C79.8297 126.419 80.5557 126.308 81.2524 126.227C81.602 126.184 81.9437 126.141 82.2774 126.101C82.611 126.058 82.934 125.993 83.2516 125.947C83.8842 125.845 84.4848 125.751 85.0507 125.659C86.1691 125.428 87.1514 125.242 87.9548 125.064C89.5564 124.674 90.4719 124.453 90.4719 124.453C90.4719 124.453 89.5777 124.752 88.0109 125.272C87.2181 125.506 86.2492 125.767 85.1361 126.06C84.5729 126.184 83.975 126.316 83.3451 126.456C83.0301 126.524 82.7071 126.602 82.3708 126.661C82.0371 126.717 81.6928 126.777 81.3431 126.836C79.9471 127.094 78.4203 127.286 76.8028 127.455C75.9913 127.52 75.1585 127.603 74.307 127.654C73.4529 127.695 72.58 127.735 71.6939 127.757C70.8077 127.757 69.9028 127.778 68.9899 127.762C68.077 127.732 67.1508 127.73 66.2219 127.662C65.293 127.598 64.3535 127.56 63.4139 127.461C62.9441 127.417 62.4743 127.374 62.0019 127.329C61.5321 127.283 61.0623 127.218 60.5925 127.164C60.1227 127.102 59.653 127.051 59.1858 126.981C58.7187 126.909 58.2516 126.839 57.7845 126.766C56.8503 126.634 55.9294 126.448 55.0112 126.289C53.1801 125.945 51.3917 125.541 49.67 125.107C49.2403 125 48.8132 124.889 48.3915 124.784C47.9724 124.669 47.556 124.553 47.1449 124.44C46.3228 124.216 45.5247 123.963 44.7453 123.732C43.1918 123.252 41.7371 122.76 40.4051 122.272C39.0705 121.796 37.864 121.309 36.799 120.875C35.7367 120.434 34.8184 120.027 34.0684 119.68C33.3157 119.338 32.7364 119.044 32.3414 118.845C31.9463 118.649 31.7355 118.541 31.7355 118.541Z" fill="#80C342"/>
<defs>
<linearGradient id="paint0_linear_104_54" x1="87.1948" y1="41.7366" x2="147.368" y2="41.7366" gradientUnits="userSpaceOnUse">
<stop stop-color="#80C342"/>
<stop offset="1" stop-color="#BFD730"/>
</linearGradient>
<linearGradient id="paint1_linear_104_54" x1="23.5147" y1="83.2193" x2="148.523" y2="83.2193" gradientUnits="userSpaceOnUse">
<stop stop-color="#B2D235"/>
<stop offset="1" stop-color="#72BF44"/>
</linearGradient>
<linearGradient id="paint2_linear_104_54" x1="2.76504" y1="69.4011" x2="55.4424" y2="69.4011" gradientUnits="userSpaceOnUse">
<stop stop-color="#00692B"/>
<stop offset="1" stop-color="#0DB14B"/>
</linearGradient>
<linearGradient id="paint3_linear_104_54" x1="2.00167" y1="87.3899" x2="54.7838" y2="87.3899" gradientUnits="userSpaceOnUse">
<stop stop-color="#00692B"/>
<stop offset="1" stop-color="#223B1E"/>
</linearGradient>
</defs>
</svg>
